# xmcd CD database file
#
# Track frame offsets:
#	150
#	19090
#	35181
#	50708
#	65943
#	83220
#	103514
#	121464
#	135625
#	152330
#	169890
#	183685
#	200876
#	216166
#
# Disc length: 3157 seconds
#
# Revision: 2
# Processed by: cddbd v1.5.2PL0 Copyright (c) Steve Scherf et al.
# Submitted via: CDex 1.51
#
DISCID=d70c530e
DTITLE=Gary Ellis - Time to Learn
DYEAR=1900
DGENRE=Country
TTITLE0=Walking piece of Heaven
TTITLE1=Keep the beat in Time
TTITLE2=Time to Learn
TTITLE3=Love is a lonely Street
TTITLE4=Australia Beautiful
TTITLE5=Hands of Time
TTITLE6=I remember Regal Zonophone
TTITLE7=The clearance Sale
TTITLE8=Mister Rainbow
TTITLE9=Camooweal
TTITLE10=Sweeter than Springtime
TTITLE11=Sincerely Yours
TTITLE12=Spread a little Happiness
TTITLE13=Ringo the Dingo
EXTD=Australian Artist-Lives in Victoria
EXTT0=
EXTT1=
EXTT2=
EXTT3=
EXTT4=
EXTT5=
EXTT6=
EXTT7=
EXTT8=
EXTT9=
EXTT10=
EXTT11=
EXTT12=
EXTT13=
PLAYORDER=
